MFile 1 2 384
MTrk
0 TimeSig 4/4 24 8
0 Tempo 500000
0 Meta TrkEnd
TrkEnd
MTrk
0 Meta TrkName "Electric Piano"
0 PrCh ch=1 p=0
0 On ch=1 n=54 v=50
96 Off ch=1 n=54 v=0
96 On ch=1 n=54 v=50
192 Off ch=1 n=54 v=0
192 On ch=1 n=66 v=50
288 Off ch=1 n=66 v=0
384 On ch=1 n=61 v=50
480 Off ch=1 n=61 v=0
672 On ch=1 n=60 v=50
768 Off ch=1 n=60 v=0
864 On ch=1 n=59 v=50
960 Off ch=1 n=59 v=0
1056 On ch=1 n=57 v=50
1152 Off ch=1 n=57 v=0
1248 On ch=1 n=54 v=50
1344 Off ch=1 n=54 v=0
1344 On ch=1 n=57 v=50
1440 Off ch=1 n=57 v=0
1440 On ch=1 n=59 v=50
1536 Off ch=1 n=59 v=0
1536 On ch=1 n=52 v=50
1632 Off ch=1 n=52 v=0
1632 On ch=1 n=52 v=50
1728 Off ch=1 n=52 v=0
1728 On ch=1 n=66 v=50
1824 Off ch=1 n=66 v=0
1920 On ch=1 n=61 v=50
2016 Off ch=1 n=61 v=0
2208 On ch=1 n=60 v=50
2304 Off ch=1 n=60 v=0
2400 On ch=1 n=59 v=50
2496 Off ch=1 n=59 v=0
2592 On ch=1 n=57 v=50
2688 Off ch=1 n=57 v=0
2784 On ch=1 n=54 v=50
2880 Off ch=1 n=54 v=0
2880 On ch=1 n=57 v=50
2976 Off ch=1 n=57 v=0
2976 On ch=1 n=59 v=50
3072 Off ch=1 n=59 v=0
3072 On ch=1 n=51 v=50
3168 Off ch=1 n=51 v=0
3168 On ch=1 n=51 v=50
3264 Off ch=1 n=51 v=0
3264 On ch=1 n=66 v=50
3360 Off ch=1 n=66 v=0
3456 On ch=1 n=61 v=50
3552 Off ch=1 n=61 v=0
3744 On ch=1 n=60 v=50
3840 Off ch=1 n=60 v=0
3936 On ch=1 n=59 v=50
4032 Off ch=1 n=59 v=0
4128 On ch=1 n=57 v=50
4224 Off ch=1 n=57 v=0
4320 On ch=1 n=54 v=50
4416 Off ch=1 n=54 v=0
4416 On ch=1 n=57 v=50
4512 Off ch=1 n=57 v=0
4512 On ch=1 n=59 v=50
4608 Off ch=1 n=59 v=0
4608 On ch=1 n=50 v=50
4704 Off ch=1 n=50 v=0
4704 On ch=1 n=50 v=50
4800 Off ch=1 n=50 v=0
4800 On ch=1 n=66 v=50
4896 Off ch=1 n=66 v=0
4992 On ch=1 n=61 v=50
5088 Off ch=1 n=61 v=0
5280 On ch=1 n=60 v=50
5376 Off ch=1 n=60 v=0
5472 On ch=1 n=59 v=50
5568 Off ch=1 n=59 v=0
5664 On ch=1 n=57 v=50
5760 Off ch=1 n=57 v=0
5856 On ch=1 n=54 v=50
5952 Off ch=1 n=54 v=0
5952 On ch=1 n=57 v=50
6048 Off ch=1 n=57 v=0
6048 On ch=1 n=59 v=50
6144 Off ch=1 n=59 v=0
6144 On ch=1 n=54 v=50
6144 On ch=1 n=42 v=50
6240 Off ch=1 n=42 v=0
6240 Off ch=1 n=54 v=0
6240 On ch=1 n=42 v=50
6240 On ch=1 n=54 v=50
6336 Off ch=1 n=54 v=0
6336 Off ch=1 n=42 v=0
6336 On ch=1 n=66 v=50
6336 On ch=1 n=42 v=50
6432 Off ch=1 n=42 v=0
6432 Off ch=1 n=66 v=0
6528 On ch=1 n=61 v=50
6528 On ch=1 n=42 v=50
6624 Off ch=1 n=42 v=0
6624 Off ch=1 n=61 v=0
6816 On ch=1 n=60 v=50
6816 On ch=1 n=42 v=50
6912 Off ch=1 n=42 v=0
6912 Off ch=1 n=60 v=0
7008 On ch=1 n=42 v=50
7008 On ch=1 n=59 v=50
7104 Off ch=1 n=42 v=0
7104 Off ch=1 n=59 v=0
7200 On ch=1 n=42 v=50
7200 On ch=1 n=57 v=50
7296 Off ch=1 n=57 v=0
7296 Off ch=1 n=42 v=0
7392 On ch=1 n=42 v=50
7392 On ch=1 n=54 v=50
7488 Off ch=1 n=54 v=0
7488 Off ch=1 n=42 v=0
7488 On ch=1 n=42 v=50
7488 On ch=1 n=57 v=50
7584 Off ch=1 n=57 v=0
7584 Off ch=1 n=42 v=0
7584 On ch=1 n=59 v=50
7584 On ch=1 n=42 v=50
7680 Off ch=1 n=59 v=0
7680 Off ch=1 n=42 v=0
7680 On ch=1 n=40 v=50
7680 On ch=1 n=52 v=50
7776 Off ch=1 n=52 v=0
7776 Off ch=1 n=40 v=0
7776 On ch=1 n=40 v=50
7776 On ch=1 n=52 v=50
7872 Off ch=1 n=52 v=0
7872 Off ch=1 n=40 v=0
7872 On ch=1 n=66 v=50
7872 On ch=1 n=40 v=50
7968 Off ch=1 n=40 v=0
7968 Off ch=1 n=66 v=0
8064 On ch=1 n=61 v=50
8064 On ch=1 n=40 v=50
8160 Off ch=1 n=40 v=0
8160 Off ch=1 n=61 v=0
8352 On ch=1 n=60 v=50
8352 On ch=1 n=40 v=50
8448 Off ch=1 n=40 v=0
8448 Off ch=1 n=60 v=0
8544 On ch=1 n=59 v=50
8544 On ch=1 n=40 v=50
8640 Off ch=1 n=40 v=0
8640 Off ch=1 n=59 v=0
8736 On ch=1 n=57 v=50
8736 On ch=1 n=40 v=50
8832 Off ch=1 n=40 v=0
8832 Off ch=1 n=57 v=0
8928 On ch=1 n=40 v=50
8928 On ch=1 n=54 v=50
9024 Off ch=1 n=40 v=0
9024 Off ch=1 n=54 v=0
9024 On ch=1 n=40 v=50
9024 On ch=1 n=57 v=50
9120 Off ch=1 n=57 v=0
9120 Off ch=1 n=40 v=0
9120 On ch=1 n=59 v=50
9120 On ch=1 n=40 v=50
9216 Off ch=1 n=40 v=0
9216 Off ch=1 n=59 v=0
9216 On ch=1 n=51 v=50
9216 On ch=1 n=39 v=50
9312 Off ch=1 n=39 v=0
9312 Off ch=1 n=51 v=0
9312 On ch=1 n=39 v=50
9312 On ch=1 n=51 v=50
9408 Off ch=1 n=51 v=0
9408 Off ch=1 n=39 v=0
9408 On ch=1 n=39 v=50
9408 On ch=1 n=66 v=50
9504 Off ch=1 n=39 v=0
9504 Off ch=1 n=66 v=0
9600 On ch=1 n=61 v=50
9600 On ch=1 n=39 v=50
9696 Off ch=1 n=39 v=0
9696 Off ch=1 n=61 v=0
9888 On ch=1 n=60 v=50
9888 On ch=1 n=39 v=50
9984 Off ch=1 n=39 v=0
9984 Off ch=1 n=60 v=0
10080 On ch=1 n=39 v=50
10080 On ch=1 n=59 v=50
10176 Off ch=1 n=59 v=0
10176 Off ch=1 n=39 v=0
10272 On ch=1 n=57 v=50
10272 On ch=1 n=39 v=50
10368 Off ch=1 n=57 v=0
10368 Off ch=1 n=39 v=0
10464 On ch=1 n=39 v=50
10464 On ch=1 n=54 v=50
10560 Off ch=1 n=54 v=0
10560 Off ch=1 n=39 v=0
10560 On ch=1 n=39 v=50
10560 On ch=1 n=57 v=50
10656 Off ch=1 n=57 v=0
10656 Off ch=1 n=39 v=0
10656 On ch=1 n=39 v=50
10656 On ch=1 n=59 v=50
10752 Off ch=1 n=59 v=0
10752 Off ch=1 n=39 v=0
10752 On ch=1 n=50 v=50
10752 On ch=1 n=38 v=50
10848 Off ch=1 n=50 v=0
10848 Off ch=1 n=38 v=0
10848 On ch=1 n=38 v=50
10848 On ch=1 n=50 v=50
10944 Off ch=1 n=50 v=0
10944 Off ch=1 n=38 v=0
10944 On ch=1 n=38 v=50
10944 On ch=1 n=66 v=50
11040 Off ch=1 n=66 v=0
11040 Off ch=1 n=38 v=0
11136 On ch=1 n=61 v=50
11136 On ch=1 n=38 v=50
11232 Off ch=1 n=38 v=0
11232 Off ch=1 n=61 v=0
11424 On ch=1 n=40 v=50
11424 On ch=1 n=60 v=50
11520 Off ch=1 n=60 v=0
11520 Off ch=1 n=40 v=0
11616 On ch=1 n=59 v=50
11616 On ch=1 n=40 v=50
11712 Off ch=1 n=40 v=0
11712 Off ch=1 n=59 v=0
11808 On ch=1 n=57 v=50
11808 On ch=1 n=40 v=50
11904 Off ch=1 n=40 v=0
11904 Off ch=1 n=57 v=0
12000 On ch=1 n=54 v=50
12000 On ch=1 n=40 v=50
12096 Off ch=1 n=40 v=0
12096 Off ch=1 n=54 v=0
12096 On ch=1 n=40 v=50
12096 On ch=1 n=57 v=50
12192 Off ch=1 n=40 v=0
12192 Off ch=1 n=57 v=0
12192 On ch=1 n=59 v=50
12192 On ch=1 n=40 v=50
12288 Off ch=1 n=40 v=0
12288 Off ch=1 n=59 v=0
12288 On ch=1 n=54 v=50
12288 On ch=1 n=66 v=50
12288 On ch=1 n=78 v=50
12288 On ch=1 n=42 v=50
12384 Off ch=1 n=42 v=0
12384 Off ch=1 n=78 v=0
12384 Off ch=1 n=66 v=0
12384 Off ch=1 n=54 v=0
12384 On ch=1 n=42 v=50
12384 On ch=1 n=66 v=50
12384 On ch=1 n=54 v=50
12384 On ch=1 n=78 v=50
12480 Off ch=1 n=42 v=0
12480 Off ch=1 n=66 v=0
12480 Off ch=1 n=78 v=0
12480 Off ch=1 n=54 v=0
12480 On ch=1 n=66 v=50
12480 On ch=1 n=90 v=50
12480 On ch=1 n=78 v=50
12480 On ch=1 n=42 v=50
12576 Off ch=1 n=42 v=0
12576 Off ch=1 n=78 v=0
12576 Off ch=1 n=90 v=0
12576 Off ch=1 n=66 v=0
12672 On ch=1 n=42 v=50
12672 On ch=1 n=61 v=50
12672 On ch=1 n=85 v=50
12672 On ch=1 n=73 v=50
12768 Off ch=1 n=42 v=0
12768 Off ch=1 n=85 v=0
12768 Off ch=1 n=73 v=0
12768 Off ch=1 n=61 v=0
12960 On ch=1 n=72 v=50
12960 On ch=1 n=84 v=50
12960 On ch=1 n=60 v=50
12960 On ch=1 n=42 v=50
13056 Off ch=1 n=72 v=0
13056 Off ch=1 n=42 v=0
13056 Off ch=1 n=60 v=0
13056 Off ch=1 n=84 v=0
13152 On ch=1 n=83 v=50
13152 On ch=1 n=42 v=50
13152 On ch=1 n=59 v=50
13152 On ch=1 n=71 v=50
13248 Off ch=1 n=71 v=0
13248 Off ch=1 n=83 v=0
13248 Off ch=1 n=42 v=0
13248 Off ch=1 n=59 v=0
13344 On ch=1 n=57 v=50
13344 On ch=1 n=42 v=50
13344 On ch=1 n=81 v=50
13344 On ch=1 n=69 v=50
13440 Off ch=1 n=69 v=0
13440 Off ch=1 n=81 v=0
13440 Off ch=1 n=42 v=0
13440 Off ch=1 n=57 v=0
13536 On ch=1 n=54 v=50
13536 On ch=1 n=66 v=50
13536 On ch=1 n=78 v=50
13536 On ch=1 n=42 v=50
13632 Off ch=1 n=54 v=0
13632 Off ch=1 n=42 v=0
13632 Off ch=1 n=78 v=0
13632 Off ch=1 n=66 v=0
13632 On ch=1 n=42 v=50
13632 On ch=1 n=81 v=50
13632 On ch=1 n=57 v=50
13632 On ch=1 n=69 v=50
13728 Off ch=1 n=69 v=0
13728 Off ch=1 n=57 v=0
13728 Off ch=1 n=81 v=0
13728 Off ch=1 n=42 v=0
13728 On ch=1 n=42 v=50
13728 On ch=1 n=71 v=50
13728 On ch=1 n=59 v=50
13728 On ch=1 n=83 v=50
13824 Off ch=1 n=71 v=0
13824 Off ch=1 n=83 v=0
13824 Off ch=1 n=42 v=0
13824 Off ch=1 n=59 v=0
13824 On ch=1 n=40 v=50
13824 On ch=1 n=76 v=50
13824 On ch=1 n=52 v=50
13824 On ch=1 n=64 v=50
13920 Off ch=1 n=76 v=0
13920 Off ch=1 n=40 v=0
13920 Off ch=1 n=52 v=0
13920 Off ch=1 n=64 v=0
13920 On ch=1 n=76 v=50
13920 On ch=1 n=40 v=50
13920 On ch=1 n=64 v=50
13920 On ch=1 n=52 v=50
14016 Off ch=1 n=52 v=0
14016 Off ch=1 n=64 v=0
14016 Off ch=1 n=40 v=0
14016 Off ch=1 n=76 v=0
14016 On ch=1 n=66 v=50
14016 On ch=1 n=78 v=50
14016 On ch=1 n=90 v=50
14016 On ch=1 n=40 v=50
14112 Off ch=1 n=66 v=0
14112 Off ch=1 n=90 v=0
14112 Off ch=1 n=40 v=0
14112 Off ch=1 n=78 v=0
14208 On ch=1 n=73 v=50
14208 On ch=1 n=61 v=50
14208 On ch=1 n=40 v=50
14208 On ch=1 n=85 v=50
14304 Off ch=1 n=85 v=0
14304 Off ch=1 n=61 v=0
14304 Off ch=1 n=73 v=0
14304 Off ch=1 n=40 v=0
14496 On ch=1 n=72 v=50
14496 On ch=1 n=60 v=50
14496 On ch=1 n=40 v=50
14496 On ch=1 n=84 v=50
14592 Off ch=1 n=84 v=0
14592 Off ch=1 n=60 v=0
14592 Off ch=1 n=72 v=0
14592 Off ch=1 n=40 v=0
14688 On ch=1 n=83 v=50
14688 On ch=1 n=71 v=50
14688 On ch=1 n=40 v=50
14688 On ch=1 n=59 v=50
14784 Off ch=1 n=59 v=0
14784 Off ch=1 n=40 v=0
14784 Off ch=1 n=71 v=0
14784 Off ch=1 n=83 v=0
14880 On ch=1 n=40 v=50
14880 On ch=1 n=81 v=50
14880 On ch=1 n=57 v=50
14880 On ch=1 n=69 v=50
14976 Off ch=1 n=69 v=0
14976 Off ch=1 n=57 v=0
14976 Off ch=1 n=40 v=0
14976 Off ch=1 n=81 v=0
15072 On ch=1 n=40 v=50
15072 On ch=1 n=78 v=50
15072 On ch=1 n=66 v=50
15072 On ch=1 n=54 v=50
15168 Off ch=1 n=54 v=0
15168 Off ch=1 n=66 v=0
15168 Off ch=1 n=78 v=0
15168 Off ch=1 n=40 v=0
15168 On ch=1 n=69 v=50
15168 On ch=1 n=40 v=50
15168 On ch=1 n=57 v=50
15168 On ch=1 n=81 v=50
15264 Off ch=1 n=81 v=0
15264 Off ch=1 n=40 v=0
15264 Off ch=1 n=69 v=0
15264 Off ch=1 n=57 v=0
15264 On ch=1 n=59 v=50
15264 On ch=1 n=83 v=50
15264 On ch=1 n=40 v=50
15264 On ch=1 n=71 v=50
15360 Off ch=1 n=71 v=0
15360 Off ch=1 n=40 v=0
15360 Off ch=1 n=83 v=0
15360 Off ch=1 n=59 v=0
15360 On ch=1 n=63 v=50
15360 On ch=1 n=51 v=50
15360 On ch=1 n=39 v=50
15360 On ch=1 n=75 v=50
15456 Off ch=1 n=39 v=0
15456 Off ch=1 n=51 v=0
15456 Off ch=1 n=75 v=0
15456 Off ch=1 n=63 v=0
15456 On ch=1 n=51 v=50
15456 On ch=1 n=75 v=50
15456 On ch=1 n=63 v=50
15456 On ch=1 n=39 v=50
15552 Off ch=1 n=39 v=0
15552 Off ch=1 n=63 v=0
15552 Off ch=1 n=75 v=0
15552 Off ch=1 n=51 v=0
15552 On ch=1 n=39 v=50
15552 On ch=1 n=66 v=50
15552 On ch=1 n=78 v=50
15552 On ch=1 n=90 v=50
15648 Off ch=1 n=90 v=0
15648 Off ch=1 n=66 v=0
15648 Off ch=1 n=39 v=0
15648 Off ch=1 n=78 v=0
15744 On ch=1 n=73 v=50
15744 On ch=1 n=61 v=50
15744 On ch=1 n=85 v=50
15744 On ch=1 n=39 v=50
15840 Off ch=1 n=39 v=0
15840 Off ch=1 n=85 v=0
15840 Off ch=1 n=61 v=0
15840 Off ch=1 n=73 v=0
16032 On ch=1 n=84 v=50
16032 On ch=1 n=39 v=50
16032 On ch=1 n=72 v=50
16032 On ch=1 n=60 v=50
16128 Off ch=1 n=39 v=0
16128 Off ch=1 n=84 v=0
16128 Off ch=1 n=60 v=0
16128 Off ch=1 n=72 v=0
16224 On ch=1 n=39 v=50
16224 On ch=1 n=83 v=50
16224 On ch=1 n=59 v=50
16224 On ch=1 n=71 v=50
16320 Off ch=1 n=71 v=0
16320 Off ch=1 n=59 v=0
16320 Off ch=1 n=83 v=0
16320 Off ch=1 n=39 v=0
16416 On ch=1 n=39 v=50
16416 On ch=1 n=57 v=50
16416 On ch=1 n=81 v=50
16416 On ch=1 n=69 v=50
16512 Off ch=1 n=39 v=0
16512 Off ch=1 n=57 v=0
16512 Off ch=1 n=69 v=0
16512 Off ch=1 n=81 v=0
16608 On ch=1 n=66 v=50
16608 On ch=1 n=78 v=50
16608 On ch=1 n=39 v=50
16608 On ch=1 n=54 v=50
16704 Off ch=1 n=54 v=0
16704 Off ch=1 n=39 v=0
16704 Off ch=1 n=78 v=0
16704 Off ch=1 n=66 v=0
16704 On ch=1 n=39 v=50
16704 On ch=1 n=81 v=50
16704 On ch=1 n=57 v=50
16704 On ch=1 n=69 v=50
16800 Off ch=1 n=57 v=0
16800 Off ch=1 n=39 v=0
16800 Off ch=1 n=81 v=0
16800 Off ch=1 n=69 v=0
16800 On ch=1 n=71 v=50
16800 On ch=1 n=59 v=50
16800 On ch=1 n=83 v=50
16800 On ch=1 n=39 v=50
16896 Off ch=1 n=39 v=0
16896 Off ch=1 n=83 v=0
16896 Off ch=1 n=59 v=0
16896 Off ch=1 n=71 v=0
16896 On ch=1 n=38 v=50
16896 On ch=1 n=74 v=50
16896 On ch=1 n=50 v=50
16896 On ch=1 n=62 v=50
16992 Off ch=1 n=74 v=0
16992 Off ch=1 n=38 v=0
16992 Off ch=1 n=50 v=0
16992 Off ch=1 n=62 v=0
16992 On ch=1 n=74 v=50
16992 On ch=1 n=62 v=50
16992 On ch=1 n=50 v=50
16992 On ch=1 n=38 v=50
17088 Off ch=1 n=38 v=0
17088 Off ch=1 n=50 v=0
17088 Off ch=1 n=62 v=0
17088 Off ch=1 n=74 v=0
17088 On ch=1 n=78 v=50
17088 On ch=1 n=90 v=50
17088 On ch=1 n=38 v=50
17088 On ch=1 n=66 v=50
17184 Off ch=1 n=90 v=0
17184 Off ch=1 n=66 v=0
17184 Off ch=1 n=78 v=0
17184 Off ch=1 n=38 v=0
17280 On ch=1 n=61 v=50
17280 On ch=1 n=85 v=50
17280 On ch=1 n=73 v=50
17280 On ch=1 n=38 v=50
17376 Off ch=1 n=38 v=0
17376 Off ch=1 n=73 v=0
17376 Off ch=1 n=85 v=0
17376 Off ch=1 n=61 v=0
17568 On ch=1 n=72 v=50
17568 On ch=1 n=60 v=50
17568 On ch=1 n=40 v=50
17568 On ch=1 n=84 v=50
17664 Off ch=1 n=60 v=0
17664 Off ch=1 n=84 v=0
17664 Off ch=1 n=72 v=0
17664 Off ch=1 n=40 v=0
17760 On ch=1 n=59 v=50
17760 On ch=1 n=71 v=50
17760 On ch=1 n=83 v=50
17760 On ch=1 n=40 v=50
17856 Off ch=1 n=71 v=0
17856 Off ch=1 n=40 v=0
17856 Off ch=1 n=59 v=0
17856 Off ch=1 n=83 v=0
17952 On ch=1 n=81 v=50
17952 On ch=1 n=69 v=50
17952 On ch=1 n=57 v=50
17952 On ch=1 n=40 v=50
18048 Off ch=1 n=40 v=0
18048 Off ch=1 n=57 v=0
18048 Off ch=1 n=69 v=0
18048 Off ch=1 n=81 v=0
18144 On ch=1 n=40 v=50
18144 On ch=1 n=66 v=50
18144 On ch=1 n=78 v=50
18144 On ch=1 n=54 v=50
18240 Off ch=1 n=78 v=0
18240 Off ch=1 n=40 v=0
18240 Off ch=1 n=66 v=0
18240 Off ch=1 n=54 v=0
18240 On ch=1 n=57 v=50
18240 On ch=1 n=69 v=50
18240 On ch=1 n=40 v=50
18240 On ch=1 n=81 v=50
18336 Off ch=1 n=69 v=0
18336 Off ch=1 n=81 v=0
18336 Off ch=1 n=57 v=0
18336 Off ch=1 n=40 v=0
18336 On ch=1 n=59 v=50
18336 On ch=1 n=83 v=50
18336 On ch=1 n=40 v=50
18336 On ch=1 n=71 v=50
18432 Off ch=1 n=71 v=0
18432 Off ch=1 n=59 v=0
18432 Off ch=1 n=83 v=0
18432 Off ch=1 n=40 v=0
18432 On ch=1 n=42 v=50
18432 On ch=1 n=54 v=50
18432 On ch=1 n=66 v=50
18432 On ch=1 n=78 v=50
18528 Off ch=1 n=42 v=0
18528 Off ch=1 n=78 v=0
18528 Off ch=1 n=66 v=0
18528 Off ch=1 n=54 v=0
18528 On ch=1 n=54 v=50
18528 On ch=1 n=78 v=50
18528 On ch=1 n=66 v=50
18528 On ch=1 n=42 v=50
18624 Off ch=1 n=78 v=0
18624 Off ch=1 n=42 v=0
18624 Off ch=1 n=66 v=0
18624 Off ch=1 n=54 v=0
18624 On ch=1 n=78 v=50
18624 On ch=1 n=66 v=50
18624 On ch=1 n=90 v=50
18624 On ch=1 n=42 v=50
18720 Off ch=1 n=42 v=0
18720 Off ch=1 n=90 v=0
18720 Off ch=1 n=66 v=0
18720 Off ch=1 n=78 v=0
18816 On ch=1 n=42 v=50
18816 On ch=1 n=61 v=50
18816 On ch=1 n=85 v=50
18816 On ch=1 n=73 v=50
18912 Off ch=1 n=61 v=0
18912 Off ch=1 n=42 v=0
18912 Off ch=1 n=85 v=0
18912 Off ch=1 n=73 v=0
19104 On ch=1 n=60 v=50
19104 On ch=1 n=42 v=50
19104 On ch=1 n=72 v=50
19104 On ch=1 n=84 v=50
19200 Off ch=1 n=84 v=0
19200 Off ch=1 n=72 v=0
19200 Off ch=1 n=42 v=0
19200 Off ch=1 n=60 v=0
19296 On ch=1 n=59 v=50
19296 On ch=1 n=83 v=50
19296 On ch=1 n=71 v=50
19296 On ch=1 n=42 v=50
19392 Off ch=1 n=83 v=0
19392 Off ch=1 n=59 v=0
19392 Off ch=1 n=42 v=0
19392 Off ch=1 n=71 v=0
19488 On ch=1 n=81 v=50
19488 On ch=1 n=42 v=50
19488 On ch=1 n=57 v=50
19488 On ch=1 n=69 v=50
19584 Off ch=1 n=57 v=0
19584 Off ch=1 n=81 v=0
19584 Off ch=1 n=42 v=0
19584 Off ch=1 n=69 v=0
19680 On ch=1 n=66 v=50
19680 On ch=1 n=78 v=50
19680 On ch=1 n=42 v=50
19680 On ch=1 n=54 v=50
19776 Off ch=1 n=54 v=0
19776 Off ch=1 n=66 v=0
19776 Off ch=1 n=78 v=0
19776 Off ch=1 n=42 v=0
19776 On ch=1 n=81 v=50
19776 On ch=1 n=69 v=50
19776 On ch=1 n=42 v=50
19776 On ch=1 n=57 v=50
19872 Off ch=1 n=81 v=0
19872 Off ch=1 n=57 v=0
19872 Off ch=1 n=42 v=0
19872 Off ch=1 n=69 v=0
19872 On ch=1 n=42 v=50
19872 On ch=1 n=59 v=50
19872 On ch=1 n=83 v=50
19872 On ch=1 n=71 v=50
19968 Off ch=1 n=59 v=0
19968 Off ch=1 n=71 v=0
19968 Off ch=1 n=83 v=0
19968 Off ch=1 n=42 v=0
19968 On ch=1 n=64 v=50
19968 On ch=1 n=52 v=50
19968 On ch=1 n=76 v=50
19968 On ch=1 n=40 v=50
20064 Off ch=1 n=40 v=0
20064 Off ch=1 n=76 v=0
20064 Off ch=1 n=64 v=0
20064 Off ch=1 n=52 v=0
20064 On ch=1 n=52 v=50
20064 On ch=1 n=40 v=50
20064 On ch=1 n=64 v=50
20064 On ch=1 n=76 v=50
20160 Off ch=1 n=40 v=0
20160 Off ch=1 n=76 v=0
20160 Off ch=1 n=64 v=0
20160 Off ch=1 n=52 v=0
20160 On ch=1 n=78 v=50
20160 On ch=1 n=40 v=50
20160 On ch=1 n=66 v=50
20160 On ch=1 n=90 v=50
20256 Off ch=1 n=40 v=0
20256 Off ch=1 n=78 v=0
20256 Off ch=1 n=66 v=0
20256 Off ch=1 n=90 v=0
20352 On ch=1 n=85 v=50
20352 On ch=1 n=40 v=50
20352 On ch=1 n=73 v=50
20352 On ch=1 n=61 v=50
20448 Off ch=1 n=61 v=0
20448 Off ch=1 n=73 v=0
20448 Off ch=1 n=40 v=0
20448 Off ch=1 n=85 v=0
20640 On ch=1 n=60 v=50
20640 On ch=1 n=84 v=50
20640 On ch=1 n=40 v=50
20640 On ch=1 n=72 v=50
20736 Off ch=1 n=84 v=0
20736 Off ch=1 n=40 v=0
20736 Off ch=1 n=72 v=0
20736 Off ch=1 n=60 v=0
20832 On ch=1 n=83 v=50
20832 On ch=1 n=40 v=50
20832 On ch=1 n=71 v=50
20832 On ch=1 n=59 v=50
20928 Off ch=1 n=59 v=0
20928 Off ch=1 n=71 v=0
20928 Off ch=1 n=40 v=0
20928 Off ch=1 n=83 v=0
21024 On ch=1 n=69 v=50
21024 On ch=1 n=81 v=50
21024 On ch=1 n=57 v=50
21024 On ch=1 n=40 v=50
21120 Off ch=1 n=81 v=0
21120 Off ch=1 n=57 v=0
21120 Off ch=1 n=40 v=0
21120 Off ch=1 n=69 v=0
21216 On ch=1 n=40 v=50
21216 On ch=1 n=54 v=50
21216 On ch=1 n=66 v=50
21216 On ch=1 n=78 v=50
21312 Off ch=1 n=54 v=0
21312 Off ch=1 n=40 v=0
21312 Off ch=1 n=66 v=0
21312 Off ch=1 n=78 v=0
21312 On ch=1 n=40 v=50
21312 On ch=1 n=81 v=50
21312 On ch=1 n=69 v=50
21312 On ch=1 n=57 v=50
21408 Off ch=1 n=81 v=0
21408 Off ch=1 n=40 v=0
21408 Off ch=1 n=69 v=0
21408 Off ch=1 n=57 v=0
21408 On ch=1 n=59 v=50
21408 On ch=1 n=83 v=50
21408 On ch=1 n=40 v=50
21408 On ch=1 n=71 v=50
21504 Off ch=1 n=71 v=0
21504 Off ch=1 n=40 v=0
21504 Off ch=1 n=83 v=0
21504 Off ch=1 n=59 v=0
21504 On ch=1 n=51 v=50
21504 On ch=1 n=75 v=50
21504 On ch=1 n=63 v=50
21504 On ch=1 n=39 v=50
21600 Off ch=1 n=51 v=0
21600 Off ch=1 n=39 v=0
21600 Off ch=1 n=63 v=0
21600 Off ch=1 n=75 v=0
21600 On ch=1 n=75 v=50
21600 On ch=1 n=63 v=50
21600 On ch=1 n=39 v=50
21600 On ch=1 n=51 v=50
21696 Off ch=1 n=63 v=0
21696 Off ch=1 n=51 v=0
21696 Off ch=1 n=75 v=0
21696 Off ch=1 n=39 v=0
21696 On ch=1 n=78 v=50
21696 On ch=1 n=66 v=50
21696 On ch=1 n=90 v=50
21696 On ch=1 n=39 v=50
21792 Off ch=1 n=39 v=0
21792 Off ch=1 n=90 v=0
21792 Off ch=1 n=66 v=0
21792 Off ch=1 n=78 v=0
21888 On ch=1 n=85 v=50
21888 On ch=1 n=61 v=50
21888 On ch=1 n=73 v=50
21888 On ch=1 n=39 v=50
21984 Off ch=1 n=85 v=0
21984 Off ch=1 n=73 v=0
21984 Off ch=1 n=39 v=0
21984 Off ch=1 n=61 v=0
22176 On ch=1 n=72 v=50
22176 On ch=1 n=60 v=50
22176 On ch=1 n=39 v=50
22176 On ch=1 n=84 v=50
22272 Off ch=1 n=84 v=0
22272 Off ch=1 n=60 v=0
22272 Off ch=1 n=72 v=0
22272 Off ch=1 n=39 v=0
22368 On ch=1 n=59 v=50
22368 On ch=1 n=39 v=50
22368 On ch=1 n=83 v=50
22368 On ch=1 n=71 v=50
22464 Off ch=1 n=71 v=0
22464 Off ch=1 n=39 v=0
22464 Off ch=1 n=59 v=0
22464 Off ch=1 n=83 v=0
22560 On ch=1 n=57 v=50
22560 On ch=1 n=69 v=50
22560 On ch=1 n=81 v=50
22560 On ch=1 n=39 v=50
22656 Off ch=1 n=39 v=0
22656 Off ch=1 n=81 v=0
22656 Off ch=1 n=69 v=0
22656 Off ch=1 n=57 v=0
22752 On ch=1 n=78 v=50
22752 On ch=1 n=39 v=50
22752 On ch=1 n=66 v=50
22752 On ch=1 n=54 v=50
22848 Off ch=1 n=54 v=0
22848 Off ch=1 n=39 v=0
22848 Off ch=1 n=78 v=0
22848 Off ch=1 n=66 v=0
22848 On ch=1 n=39 v=50
22848 On ch=1 n=69 v=50
22848 On ch=1 n=81 v=50
22848 On ch=1 n=57 v=50
22944 Off ch=1 n=57 v=0
22944 Off ch=1 n=81 v=0
22944 Off ch=1 n=69 v=0
22944 Off ch=1 n=39 v=0
22944 On ch=1 n=39 v=50
22944 On ch=1 n=71 v=50
22944 On ch=1 n=83 v=50
22944 On ch=1 n=59 v=50
23040 Off ch=1 n=71 v=0
23040 Off ch=1 n=39 v=0
23040 Off ch=1 n=83 v=0
23040 Off ch=1 n=59 v=0
23040 On ch=1 n=62 v=50
23040 On ch=1 n=38 v=50
23040 On ch=1 n=74 v=50
23040 On ch=1 n=50 v=50
23136 Off ch=1 n=50 v=0
23136 Off ch=1 n=74 v=0
23136 Off ch=1 n=38 v=0
23136 Off ch=1 n=62 v=0
23136 On ch=1 n=38 v=50
23136 On ch=1 n=74 v=50
23136 On ch=1 n=62 v=50
23136 On ch=1 n=50 v=50
23232 Off ch=1 n=74 v=0
23232 Off ch=1 n=62 v=0
23232 Off ch=1 n=38 v=0
23232 Off ch=1 n=50 v=0
23232 On ch=1 n=38 v=50
23232 On ch=1 n=78 v=50
23232 On ch=1 n=66 v=50
23232 On ch=1 n=90 v=50
23328 Off ch=1 n=90 v=0
23328 Off ch=1 n=66 v=0
23328 Off ch=1 n=38 v=0
23328 Off ch=1 n=78 v=0
23424 On ch=1 n=38 v=50
23424 On ch=1 n=61 v=50
23424 On ch=1 n=73 v=50
23424 On ch=1 n=85 v=50
23520 Off ch=1 n=85 v=0
23520 Off ch=1 n=73 v=0
23520 Off ch=1 n=61 v=0
23520 Off ch=1 n=38 v=0
23712 On ch=1 n=84 v=50
23712 On ch=1 n=60 v=50
23712 On ch=1 n=40 v=50
23712 On ch=1 n=72 v=50
23808 Off ch=1 n=84 v=0
23808 Off ch=1 n=72 v=0
23808 Off ch=1 n=40 v=0
23808 Off ch=1 n=60 v=0
23904 On ch=1 n=40 v=50
23904 On ch=1 n=83 v=50
23904 On ch=1 n=71 v=50
23904 On ch=1 n=59 v=50
24000 Off ch=1 n=59 v=0
24000 Off ch=1 n=71 v=0
24000 Off ch=1 n=83 v=0
24000 Off ch=1 n=40 v=0
24096 On ch=1 n=40 v=50
24096 On ch=1 n=81 v=50
24096 On ch=1 n=57 v=50
24096 On ch=1 n=69 v=50
24192 Off ch=1 n=40 v=0
24192 Off ch=1 n=57 v=0
24192 Off ch=1 n=69 v=0
24192 Off ch=1 n=81 v=0
24288 On ch=1 n=66 v=50
24288 On ch=1 n=54 v=50
24288 On ch=1 n=40 v=50
24288 On ch=1 n=78 v=50
24384 Off ch=1 n=78 v=0
24384 Off ch=1 n=54 v=0
24384 Off ch=1 n=66 v=0
24384 Off ch=1 n=40 v=0
24384 On ch=1 n=69 v=50
24384 On ch=1 n=57 v=50
24384 On ch=1 n=40 v=50
24384 On ch=1 n=81 v=50
24480 Off ch=1 n=81 v=0
24480 Off ch=1 n=40 v=0
24480 Off ch=1 n=69 v=0
24480 Off ch=1 n=57 v=0
24480 On ch=1 n=83 v=50
24480 On ch=1 n=40 v=50
24480 On ch=1 n=71 v=50
24480 On ch=1 n=59 v=50
24576 Off ch=1 n=59 v=0
24576 Off ch=1 n=71 v=0
24576 Off ch=1 n=40 v=0
24576 Off ch=1 n=83 v=0
24576 On ch=1 n=57 v=50
24576 On ch=1 n=42 v=50
24576 On ch=1 n=69 v=50
24672 Off ch=1 n=42 v=0
24672 Off ch=1 n=57 v=0
24672 Off ch=1 n=69 v=0
24768 On ch=1 n=57 v=50
24768 On ch=1 n=69 v=50
24768 On ch=1 n=42 v=50
24864 Off ch=1 n=42 v=0
24864 Off ch=1 n=69 v=0
24864 Off ch=1 n=57 v=0
24864 On ch=1 n=42 v=50
24864 On ch=1 n=57 v=50
24864 On ch=1 n=69 v=50
24960 Off ch=1 n=42 v=0
24960 Off ch=1 n=69 v=0
24960 Off ch=1 n=57 v=0
25056 On ch=1 n=69 v=50
25056 On ch=1 n=57 v=50
25056 On ch=1 n=42 v=50
25152 Off ch=1 n=57 v=0
25152 Off ch=1 n=42 v=0
25152 Off ch=1 n=69 v=0
25248 On ch=1 n=57 v=50
25248 On ch=1 n=69 v=50
25248 On ch=1 n=42 v=50
25344 Off ch=1 n=42 v=0
25344 Off ch=1 n=69 v=0
25344 Off ch=1 n=57 v=0
25440 On ch=1 n=42 v=50
25440 On ch=1 n=66 v=50
25440 On ch=1 n=54 v=50
25536 Off ch=1 n=54 v=0
25536 Off ch=1 n=66 v=0
25536 Off ch=1 n=42 v=0
25632 On ch=1 n=54 v=50
25632 On ch=1 n=42 v=50
25632 On ch=1 n=66 v=50
25728 Off ch=1 n=54 v=0
25728 Off ch=1 n=66 v=0
25728 Off ch=1 n=42 v=0
25824 On ch=1 n=42 v=50
25920 Off ch=1 n=42 v=0
25920 On ch=1 n=42 v=50
26016 Off ch=1 n=42 v=0
26016 On ch=1 n=42 v=50
26112 Off ch=1 n=42 v=0
26112 On ch=1 n=57 v=50
26112 On ch=1 n=69 v=50
26112 On ch=1 n=40 v=50
26208 Off ch=1 n=40 v=0
26208 Off ch=1 n=57 v=0
26208 Off ch=1 n=69 v=0
26304 On ch=1 n=57 v=50
26304 On ch=1 n=69 v=50
26304 On ch=1 n=40 v=50
26400 Off ch=1 n=40 v=0
26400 Off ch=1 n=69 v=0
26400 Off ch=1 n=57 v=0
26400 On ch=1 n=57 v=50
26400 On ch=1 n=40 v=50
26400 On ch=1 n=69 v=50
26496 Off ch=1 n=69 v=0
26496 Off ch=1 n=40 v=0
26496 Off ch=1 n=57 v=0
26592 On ch=1 n=71 v=50
26592 On ch=1 n=59 v=50
26592 On ch=1 n=40 v=50
26688 Off ch=1 n=71 v=0
26688 Off ch=1 n=59 v=0
26688 Off ch=1 n=40 v=0
26784 On ch=1 n=40 v=50
26784 On ch=1 n=72 v=50
26784 On ch=1 n=60 v=50
26880 Off ch=1 n=60 v=0
26880 Off ch=1 n=72 v=0
26880 Off ch=1 n=40 v=0
26976 On ch=1 n=59 v=50
26976 On ch=1 n=40 v=50
26976 On ch=1 n=71 v=50
27072 Off ch=1 n=71 v=0
27072 Off ch=1 n=40 v=0
27072 Off ch=1 n=59 v=0
27072 On ch=1 n=69 v=50
27072 On ch=1 n=57 v=50
27168 Off ch=1 n=57 v=0
27168 Off ch=1 n=69 v=0
27168 On ch=1 n=54 v=50
27168 On ch=1 n=66 v=50
27168 On ch=1 n=40 v=50
27264 Off ch=1 n=40 v=0
27264 Off ch=1 n=66 v=0
27264 Off ch=1 n=54 v=0
27264 On ch=1 n=57 v=50
27264 On ch=1 n=69 v=50
27360 Off ch=1 n=69 v=0
27360 Off ch=1 n=57 v=0
27360 On ch=1 n=59 v=50
27360 On ch=1 n=40 v=50
27360 On ch=1 n=71 v=50
27456 Off ch=1 n=71 v=0
27456 Off ch=1 n=59 v=0
27456 Off ch=1 n=40 v=0
27456 On ch=1 n=40 v=50
27552 Off ch=1 n=40 v=0
27552 On ch=1 n=40 v=50
27648 Off ch=1 n=40 v=0
27648 On ch=1 n=57 v=50
27648 On ch=1 n=69 v=50
27648 On ch=1 n=39 v=50
27744 Off ch=1 n=39 v=0
27744 Off ch=1 n=69 v=0
27744 Off ch=1 n=57 v=0
27840 On ch=1 n=39 v=50
27840 On ch=1 n=69 v=50
27840 On ch=1 n=57 v=50
27936 Off ch=1 n=69 v=0
27936 Off ch=1 n=39 v=0
27936 Off ch=1 n=57 v=0
27936 On ch=1 n=57 v=50
27936 On ch=1 n=39 v=50
27936 On ch=1 n=69 v=50
28032 Off ch=1 n=69 v=0
28032 Off ch=1 n=39 v=0
28032 Off ch=1 n=57 v=0
28128 On ch=1 n=71 v=50
28128 On ch=1 n=39 v=50
28128 On ch=1 n=59 v=50
28224 Off ch=1 n=71 v=0
28224 Off ch=1 n=59 v=0
28224 Off ch=1 n=39 v=0
28320 On ch=1 n=60 v=50
28320 On ch=1 n=39 v=50
28320 On ch=1 n=72 v=50
28416 Off ch=1 n=39 v=0
28416 Off ch=1 n=60 v=0
28416 Off ch=1 n=72 v=0
28512 On ch=1 n=39 v=50
28512 On ch=1 n=61 v=50
28512 On ch=1 n=73 v=50
28608 Off ch=1 n=73 v=0
28608 Off ch=1 n=61 v=0
28608 Off ch=1 n=39 v=0
28704 On ch=1 n=64 v=50
28704 On ch=1 n=39 v=50
28704 On ch=1 n=76 v=50
28800 Off ch=1 n=76 v=0
28800 Off ch=1 n=39 v=0
28800 Off ch=1 n=64 v=0
28896 On ch=1 n=39 v=50
28896 On ch=1 n=61 v=50
28896 On ch=1 n=73 v=50
28992 Off ch=1 n=39 v=0
28992 Off ch=1 n=73 v=0
28992 Off ch=1 n=61 v=0
28992 On ch=1 n=39 v=50
29088 Off ch=1 n=39 v=0
29088 On ch=1 n=39 v=50
29184 Off ch=1 n=39 v=0
29184 On ch=1 n=78 v=50
29184 On ch=1 n=38 v=50
29184 On ch=1 n=66 v=50
29280 Off ch=1 n=66 v=0
29280 Off ch=1 n=38 v=0
29280 Off ch=1 n=78 v=0
29376 On ch=1 n=66 v=50
29376 On ch=1 n=78 v=50
29376 On ch=1 n=38 v=50
29472 Off ch=1 n=78 v=0
29472 Off ch=1 n=66 v=0
29472 Off ch=1 n=38 v=0
29472 On ch=1 n=38 v=50
29568 Off ch=1 n=38 v=0
29568 On ch=1 n=66 v=50
29568 On ch=1 n=78 v=50
29664 Off ch=1 n=78 v=0
29664 Off ch=1 n=66 v=0
29664 On ch=1 n=61 v=50
29664 On ch=1 n=38 v=50
29664 On ch=1 n=73 v=50
29760 Off ch=1 n=73 v=0
29760 Off ch=1 n=38 v=0
29760 Off ch=1 n=61 v=0
29760 On ch=1 n=78 v=50
29760 On ch=1 n=66 v=50
29856 Off ch=1 n=78 v=0
29856 Off ch=1 n=66 v=0
29856 On ch=1 n=64 v=50
29856 On ch=1 n=40 v=50
29856 On ch=1 n=76 v=50
29952 Off ch=1 n=76 v=0
29952 Off ch=1 n=40 v=0
29952 Off ch=1 n=64 v=0
30048 On ch=1 n=40 v=50
30144 Off ch=1 n=40 v=0
30240 On ch=1 n=40 v=50
30336 Off ch=1 n=40 v=0
30432 On ch=1 n=40 v=50
30528 Off ch=1 n=40 v=0
30528 On ch=1 n=40 v=50
30624 Off ch=1 n=40 v=0
30624 On ch=1 n=40 v=50
30720 Off ch=1 n=40 v=0
30720 Meta TrkEnd
TrkEnd
